<?xml version="1.0" standalone="no"?>
<!DOCTYPE svg PUBLIC "-//W3C//DTD SVG 20010904//EN"
 "http://www.w3.org/TR/2001/REC-SVG-20010904/DTD/svg10.dtd">
<svg version="1.0" xmlns="http://www.w3.org/2000/svg"
 width="309.000000pt" height="309.000000pt" viewBox="0 0 309.000000 309.000000"
 preserveAspectRatio="xMidYMid meet">
<metadata>
Created by potrace 1.14, written by Peter Selinger 2001-2017
</metadata>
<g transform="translate(0.000000,309.000000) scale(0.100000,-0.100000)"
fill="#000000" stroke="none">
<path d="M1340 2980 c0 -21 8 -24 34 -14 25 10 19 34 -9 34 -18 0 -25 -5 -25
-20z"/>
<path d="M1645 2963 c-22 -7 -47 -16 -55 -20 -28 -12 -70 -10 -81 3 -13 16
-39 19 -39 4 0 -5 -11 -10 -25 -10 -14 0 -25 5 -25 11 0 8 -5 7 -16 -2 -8 -7
-32 -14 -52 -15 -20 -2 -58 -6 -84 -9 -40 -6 -46 -5 -45 11 3 29 -29 27 -57
-3 -30 -32 -32 -46 -11 -66 13 -13 12 -16 -3 -23 -39 -17 -62 -15 -62 4 0 33
-57 34 -167 2 -157 -46 -219 -72 -280 -118 -35 -26 -40 -41 -21 -60 30 -30 13
-50 -46 -56 -12 -2 -47 -19 -76 -38 -88 -56 -132 -109 -99 -120 6 -2 1 -14
-11 -28 -12 -14 -17 -26 -11 -28 18 -6 13 -19 -27 -59 -38 -40 -50 -63 -32
-63 7 0 7 -6 2 -17 -17 -33 -45 -163 -45 -205 1 -33 -1 -34 -26 -7 l-19 21
-31 -33 c-29 -30 -42 -57 -22 -45 25 16 35 -57 16 -114 -4 -14 -9 -38 -11 -55
-2 -16 -5 -42 -8 -56 -3 -21 0 -26 17 -25 11 0 21 -6 22 -14 2 -8 4 -19 6 -25
1 -5 0 -17 -3 -25 -22 -58 -21 -57 -27 -25 -3 17 -10 28 -15 27 -14 -6 -27 25
-31 76 -6 60 -10 80 -17 87 -7 7 -20 -43 -14 -53 2 -4 7 -25 10 -47 4 -21 10
-42 14 -45 5 -3 9 -15 10 -27 3 -43 5 -53 12 -53 6 0 6 -48 -1 -60 -2 -6 -6
-35 -8 -69 -1 -17 -6 -22 -19 -19 -25 7 -27 -33 -3 -76 11 -19 18 -36 15 -38
-2 -2 1 -20 7 -39 6 -19 12 -47 15 -64 2 -16 7 -41 11 -55 3 -14 7 -36 9 -49
2 -13 12 -33 24 -46 11 -12 17 -25 13 -29 -4 -4 0 -4 10 0 11 4 17 1 18 -7 5
-102 17 -159 33 -159 17 0 26 -22 26 -65 0 -24 9 -41 32 -64 17 -17 36 -31 40
-31 5 0 7 -4 3 -9 -3 -5 1 -15 8 -23 15 -15 17 -20 17 -49 0 -38 252 -272 383
-356 45 -28 93 -60 107 -70 163 -119 431 -219 436 -163 1 8 2 20 3 25 1 6 47
10 119 10 131 1 232 6 247 14 6 3 12 6 15 6 3 1 24 7 47 15 53 16 75 9 69 -25
-3 -18 1 -28 17 -37 19 -9 20 -9 11 3 -6 8 -14 26 -16 41 -4 21 -1 29 13 33
11 4 19 11 19 16 0 5 12 6 26 3 20 -5 25 -4 19 6 -5 8 -2 11 11 8 11 -2 20
-13 22 -28 3 -20 1 -22 -10 -12 -12 9 -15 9 -15 -3 0 -8 9 -15 19 -15 12 0 18
7 18 22 0 12 2 19 5 16 3 -3 37 0 75 7 58 10 70 10 74 -2 4 -9 16 -13 35 -10
20 4 31 0 35 -10 5 -12 8 -12 23 2 14 14 14 18 2 26 -8 5 -26 9 -40 9 -23 0
-25 3 -21 30 4 28 7 30 51 30 35 0 49 5 58 19 7 11 32 29 57 42 44 21 106 79
106 97 0 4 9 18 20 30 25 27 10 29 -43 7 -31 -13 -36 -13 -41 1 -3 8 1 17 9
20 8 4 13 9 10 14 -2 4 4 16 15 27 10 12 16 23 13 26 -3 3 4 19 16 35 12 17
21 35 21 41 0 6 5 11 10 11 6 0 10 5 10 11 0 6 27 38 61 72 33 34 68 74 77 90
9 15 20 27 24 27 4 0 8 7 8 15 0 8 5 15 10 15 6 0 9 3 8 8 -3 15 15 42 29 42
7 0 22 13 31 30 9 16 20 30 25 30 4 0 7 6 7 14 0 8 8 22 18 32 9 10 16 18 14
18 -7 2 17 54 32 69 14 14 23 40 25 75 1 9 6 10 20 2 26 -14 34 1 25 48 -7 39
-7 54 -3 89 3 17 7 20 21 12 21 -11 21 -9 8 25 -6 16 -6 27 1 31 5 4 15 20 22
38 11 25 10 43 -2 98 -15 71 -9 121 10 86 6 -9 7 -22 3 -29 -5 -7 -3 -8 5 -3
14 8 12 23 -12 96 l-14 46 36 -8 c53 -12 50 -3 -6 13 -42 12 -48 17 -46 38 8
118 7 126 -20 165 -14 21 -24 42 -21 47 3 4 1 8 -4 8 -5 0 -9 6 -10 13 -1 14
-10 51 -12 55 -2 1 -3 5 -5 10 -1 4 -11 28 -23 55 -12 26 -20 49 -19 51 1 2
-5 12 -13 22 -9 11 -29 44 -45 74 -16 30 -35 61 -42 68 -7 8 -25 30 -40 50
-37 50 -169 181 -218 217 -22 17 -42 32 -45 36 -3 3 -31 22 -63 43 -62 41 -77
58 -59 64 7 2 10 8 7 12 -3 5 -16 5 -29 0 -15 -5 -36 -4 -60 4 -44 15 -54 25
-38 35 16 10 -21 48 -90 92 -45 29 -53 31 -80 21 -28 -10 -33 -9 -58 18 -18
20 -38 30 -57 30 -15 0 -46 5 -68 11 -60 17 -106 18 -150 2z m-630 -173 c-6
-30 -11 -36 -57 -60 -24 -13 -54 -29 -68 -36 -35 -19 -64 -18 -56 2 4 9 2 13
-5 8 -6 -3 -9 -22 -7 -40 4 -30 1 -35 -32 -49 -19 -9 -43 -20 -52 -25 -10 -6
-23 -10 -29 -10 -6 0 -17 -7 -25 -15 -29 -28 -43 -19 -31 20 6 19 13 35 17 35
8 0 6 32 -3 47 -8 13 8 28 46 42 23 9 27 8 27 -8 0 -10 -6 -24 -14 -30 -12
-10 -13 -20 -7 -49 1 -2 23 17 49 43 35 35 48 55 46 72 -3 28 33 53 47 32 5
-8 2 -20 -8 -31 -9 -10 -11 -18 -5 -18 6 0 13 4 17 10 3 5 12 7 20 4 8 -4 18
1 21 10 7 17 81 66 101 66 6 0 10 -9 8 -20z m-505 -262 c-11 -12 -20 -27 -20
-34 0 -16 -27 -37 -34 -26 -8 13 42 82 60 82 11 0 10 -5 -6 -22z m-60 -362 c0
-2 -8 -10 -17 -17 -16 -13 -17 -12 -4 4 13 16 21 21 21 13z m10 -34 c0 -4 -17
-35 -38 -68 -21 -32 -45 -74 -53 -91 -8 -18 -17 -33 -21 -33 -5 0 -8 -8 -8
-17 0 -13 -3 -14 -8 -6 -5 7 -7 45 -5 85 2 66 5 75 29 95 28 22 44 25 55 9 4
-4 15 1 25 12 22 24 24 25 24 14z m-155 -267 c24 -2 -6 -51 -35 -57 -11 -2
-15 6 -15 27 0 32 12 48 30 37 5 -4 15 -7 20 -7z"/>
<path d="M267 2263 c-11 -11 -8 -43 5 -43 6 0 8 3 5 6 -3 4 -2 15 4 25 9 18 0
26 -14 12z"/>
<path d="M218 2203 c7 -3 16 -2 19 1 4 3 -2 6 -13 5 -11 0 -14 -3 -6 -6z"/>
<path d="M125 2130 c-3 -11 -2 -28 4 -37 8 -15 10 -11 11 20 0 41 -5 47 -15
17z"/>
<path d="M92 2034 c-18 -21 -25 -24 -36 -15 -11 9 -14 9 -12 -1 2 -18 16 -38
24 -38 15 0 73 60 67 70 -9 15 -18 12 -43 -16z"/>
<path d="M3010 1706 c0 -2 7 -7 16 -10 8 -3 12 -2 9 4 -6 10 -25 14 -25 6z"/>
<path d="M2763 953 c-7 -2 -13 -12 -13 -22 0 -9 -5 -22 -11 -28 -18 -18 6 -24
29 -7 13 8 22 26 22 40 0 24 -4 27 -27 17z"/>
<path d="M2719 863 c-1 -5 -1 -11 0 -15 0 -5 -3 -8 -7 -8 -4 0 -8 -9 -9 -20
-1 -12 4 -20 14 -20 13 0 13 -3 3 -15 -7 -8 -9 -15 -5 -15 4 0 2 -7 -5 -15
-10 -12 -9 -16 4 -21 9 -3 22 -1 29 4 18 15 12 93 -8 104 -8 5 -13 13 -10 19
4 5 4 9 1 9 -3 0 -7 -3 -7 -7z"/>
<path d="M2547 620 c-16 -17 -26 -30 -23 -30 3 0 -2 -16 -9 -34 -18 -43 -5
-53 25 -21 14 15 18 25 11 25 -11 0 -11 3 -1 15 7 8 18 15 25 15 14 0 24 28
18 48 -7 18 -15 15 -46 -18z"/>
<path d="M2631 621 c-16 -28 -14 -33 12 -29 14 2 22 10 22 22 0 27 -21 31 -34
7z"/>
<path d="M2071 146 c-13 -15 -1 -29 14 -18 13 9 17 32 6 32 -5 0 -14 -6 -20
-14z"/>
<path d="M1705 119 c-4 -6 -4 -13 -1 -16 3 -4 6 -1 6 6 0 7 5 9 12 5 7 -4 8
-3 4 4 -9 15 -13 15 -21 1z"/>
<path d="M1666 111 c-3 -4 -26 -7 -51 -6 -25 2 -45 0 -45 -3 0 -4 -29 -7 -65
-6 -38 0 -69 -4 -72 -10 -3 -6 -3 -8 2 -4 4 4 14 3 21 -3 8 -6 20 -9 29 -6 8
4 16 3 19 -1 3 -4 22 -9 43 -11 21 -2 49 -4 63 -5 40 -4 53 3 38 22 -8 10 -8
13 -2 9 7 -4 15 0 18 9 3 8 10 12 16 9 5 -3 10 -1 10 4 0 13 -17 14 -24 2z"/>
</g>
</svg>
